<?xml version="1.0" encoding="UTF-8"?>
<svg version="1.1" xmlns="http://www.w3.org/2000/svg" width="28" height="28">
<path d="M0 0 C4.62 0 9.24 0 14 0 C14 7.26 14 14.52 14 22 C9.38 22 4.76 22 0 22 C0 14.74 0 7.48 0 0 Z M4 4 C4 8.62 4 13.24 4 18 C5.98 18 7.96 18 10 18 C10 13.38 10 8.76 10 4 C8.02 4 6.04 4 4 4 Z " fill="#22C55E" transform="translate(14,3)"/>
<path d="M0 0 C1.32 0 2.64 0 4 0 C4 5.94 4 11.88 4 18 C6.64 18 9.28 18 12 18 C12 19.32 12 20.64 12 22 C8.04 22 4.08 22 0 22 C0 14.74 0 7.48 0 0 Z " fill="#22C55E" transform="translate(0,3)"/>
</svg>
