<?xml version="1.0" encoding="UTF-8"?>
<svg version="1.1" xmlns="http://www.w3.org/2000/svg" width="28" height="28">
<path d="M0 0 C9.24 0 18.48 0 28 0 C28 9.24 28 18.48 28 28 C18.76 28 9.52 28 0 28 C0 18.76 0 9.52 0 0 Z " fill="#15131A" transform="translate(0,0)"/>
<path d="M0 0 C0.33 0.66 0.66 1.32 1 2 C1.66 2 2.32 2 3 2 C3.25417629 5.4569756 3.47407622 8.91528826 3.6875 12.375 C3.76033203 13.35984375 3.83316406 14.3446875 3.90820312 15.359375 C3.96298828 16.30039062 4.01777344 17.24140625 4.07421875 18.2109375 C4.16062622 19.51490479 4.16062622 19.51490479 4.2487793 20.84521484 C4.16668213 21.55629395 4.08458496 22.26737305 4 23 C0.46569344 25.35620437 -0.83571287 25.48991613 -5 25 C-9.04676228 23.016293 -10.71429857 21.50688964 -12.9375 17.5625 C-14.25270435 13.15269718 -13.76891306 11.11451091 -12.25 6.9375 C-10.54231703 4.2905914 -8.62012149 2.72544586 -6 1 C-5.01 1.33 -4.02 1.66 -3 2 C-2.67 3.65 -2.34 5.3 -2 7 C-1.34 4.69 -0.68 2.38 0 0 Z " fill="#27252B" transform="translate(16,1)"/>
<path d="M0 0 C0.33 0.66 0.66 1.32 1 2 C1.66 2 2.32 2 3 2 C3.33 8.93 3.66 15.86 4 23 C2.35 23.66 0.7 24.32 -1 25 C-5.78129362 21.1749651 -5.78129362 21.1749651 -6.3671875 18.02734375 C-6.3797034 14.67934133 -6.36015133 11.09125302 -5 8 C-4.01 7.67 -3.02 7.34 -2 7 C-0.77030122 3.48809191 -0.77030122 3.48809191 0 0 Z " fill="#3C3A40" transform="translate(16,1)"/>
<path d="M0 0 C0.66 0 1.32 0 2 0 C2.309375 1.11375 2.61875 2.2275 2.9375 3.375 C3.82326483 6.7945155 3.82326483 6.7945155 5 9 C5.66 8.34 6.32 7.68 7 7 C7 9.97 7 12.94 7 16 C6.67 15.34 6.34 14.68 6 14 C5.34 14 4.68 14 4 14 C3.5978125 15.7015625 3.5978125 15.7015625 3.1875 17.4375 C2.795625 18.613125 2.40375 19.78875 2 21 C1.01 21.33 0.02 21.66 -1 22 C-3.04365393 19.95634607 -2.45857968 15.93946137 -2.625 13.125 C-2.6765625 12.39152344 -2.728125 11.65804688 -2.78125 10.90234375 C-2.98538588 7.60614972 -3.05422037 5.16266112 -2 2 C-1.34 2 -0.68 2 0 2 C0 1.34 0 0.68 0 0 Z " fill="#1D1B23" transform="translate(21,2)"/>
<path d="M0 0 C1.5625 1.25 1.5625 1.25 3 3 C2.6875 5.1875 2.6875 5.1875 2 7 C0.68 7 -0.64 7 -2 7 C-2 9.31 -2 11.62 -2 14 C-0.68 14 0.64 14 2 14 C2 14.66 2 15.32 2 16 C-0.4375 15.625 -0.4375 15.625 -3 15 C-4.86382646 11.27234708 -4.20879104 6.62857013 -3.6875 2.5625 C-3.460625 2.046875 -3.23375 1.53125 -3 1 C-2.01 0.67 -1.02 0.34 0 0 Z " fill="#4C4A4B" transform="translate(14,8)"/>
<path d="M0 0 C2 1 2 1 4 4 C3.625 7 3.625 7 3 10 C3 10.99 3 11.98 3 13 C0.9375 11.5625 0.9375 11.5625 -1 9 C-1.05823431 5.92416977 -0.59222907 3.01264352 0 0 Z " fill="#17141C" transform="translate(5,8)"/>
<path d="M0 0 C2.97 0 5.94 0 9 0 C7.515 1.485 7.515 1.485 6 3 C5.62690101 4.65821773 5.29299023 6.32577014 5 8 C4.01 9.485 4.01 9.485 3 11 C2.8046875 9.01432292 2.609375 7.02864583 2.4140625 5.04296875 C2.07334609 2.70011858 2.07334609 2.70011858 0 0 Z " fill="#1C1A20" transform="translate(10,0)"/>
<path d="M0 0 C2.64 0 5.28 0 8 0 C5.33333333 2.66666667 2.66666667 5.33333333 0 8 C0 5.36 0 2.72 0 0 Z " fill="#121015" transform="translate(0,0)"/>
<path d="M0 0 C1.32 0 2.64 0 4 0 C4 2.31 4 4.62 4 7 C2.68 7 1.36 7 0 7 C0 4.69 0 2.38 0 0 Z " fill="#191719" transform="translate(12,15)"/>
<path d="M0 0 C0.99 0.33 1.98 0.66 3 1 C3 2.65 3 4.3 3 6 C1.68 6 0.36 6 -1 6 C-1.042721 4.33388095 -1.04063832 2.66617115 -1 1 C-0.67 0.67 -0.34 0.34 0 0 Z " fill="#464449" transform="translate(10,2)"/>
<path d="M0 0 C0.33 0 0.66 0 1 0 C1.33 2.31 1.66 4.62 2 7 C0.35 7.66 -1.3 8.32 -3 9 C-2.25 2.25 -2.25 2.25 0 0 Z " fill="#33323B" transform="translate(18,17)"/>
<path d="M0 0 C0.33 0 0.66 0 1 0 C1 1.98 1 3.96 1 6 C-0.65 6 -2.3 6 -4 6 C-2.84826645 3.53199953 -1.95216435 1.95216435 0 0 Z " fill="#111114" transform="translate(27,22)"/>
<path d="M0 0 C1.5625 1.8125 1.5625 1.8125 3 4 C2 7 2 7 0 8 C-0.38063221 5.6739143 -0.71269945 3.33944736 -1 1 C-0.67 0.67 -0.34 0.34 0 0 Z " fill="#27242A" transform="translate(20,8)"/>
<path d="M0 0 C0.66 0 1.32 0 2 0 C1.88590407 1.45922693 1.75834456 2.91740598 1.625 4.375 C1.55539062 5.18710938 1.48578125 5.99921875 1.4140625 6.8359375 C1 9 1 9 -1 11 C-1.02688151 9.35425434 -1.04634123 7.70838587 -1.0625 6.0625 C-1.07410156 5.14597656 -1.08570312 4.22945312 -1.09765625 3.28515625 C-1 1 -1 1 0 0 Z " fill="#1E1B27" transform="translate(1,7)"/>
</svg>
